<svg width="116" height="51" viewBox="0 0 116 51" fill="none" xmlns="http://www.w3.org/2000/svg">
<path fill-rule="evenodd" clip-rule="evenodd" d="M44.5803 19.5144C45.0125 19.5413 45.0721 19.575 45.4038 19.6995C45.2845 19.925 45.1318 19.9755 45.1616 20.3053C45.21 20.7866 45.7578 21.0054 46.2794 20.9011C46.6073 20.8337 46.6856 20.726 46.8644 20.6049C46.8905 21.2747 46.965 21.6954 47.3488 22.1598C48.2282 23.2167 49.7709 23.3513 50.2106 22.3416C50.4453 21.7997 50.1398 21.0626 49.7634 20.864C49.7895 20.9684 49.8677 21.0828 49.9125 21.2006C49.9609 21.3218 50.0056 21.4598 50.0242 21.6045C50.2441 23.2638 47.7923 23.1022 47.2892 21.2612C47.1774 20.8438 47.2072 20.3525 47.4196 19.962C47.4867 19.8341 47.5836 19.7601 47.6432 19.649H47.237C47.1029 19.7803 46.9725 20.0394 46.8309 20.1943C46.4136 20.6453 45.795 20.827 45.5155 20.3861C45.374 20.164 45.4783 19.8173 45.5528 19.5985C45.4671 19.5447 45.2473 19.4976 45.0759 19.3966C44.9045 19.299 44.8113 19.1778 44.6846 19.1004L44.5728 19.5144H44.5803ZM50.6428 26.2155C50.9334 26.4073 51.7905 26.165 52.1854 25.6231C52.3345 25.4178 52.4574 25.1452 52.4873 24.849C52.532 24.4216 52.4127 24.2903 52.327 23.9436C52.804 24.0379 54.015 24.7783 54.477 25.1115L55.2968 25.7847C55.2446 25.6029 54.7081 25.199 54.5367 25.061C54.1082 24.7177 53.0984 24.1523 52.5767 23.9235C52.1445 23.7316 52.4537 23.9706 52.0923 23.6306C51.9805 23.5263 51.8091 23.3513 51.6451 23.3008C51.7793 23.6273 52.3494 24.1355 51.9693 25.0981C51.8128 25.4919 51.4849 25.8385 51.0974 26.0337C50.9707 26.0977 50.762 26.1616 50.6465 26.2188L50.6428 26.2155ZM47.4904 23.7619C47.5277 23.8662 47.5612 23.9335 47.6097 24.0412C47.6693 24.1792 47.6432 24.2095 47.7699 24.297C48.1984 24.5865 49.0741 24.3273 49.5175 24.1086C49.6144 24.0614 49.7112 23.9908 49.8081 23.9638C49.756 23.873 49.6032 23.7316 49.5249 23.6643C49.3945 23.5566 49.3312 23.4523 49.2157 23.3715C48.6046 23.6037 48.3065 23.7484 47.4904 23.7619ZM45.8919 19.0432C45.0796 19.1846 44.4946 18.259 45.0498 17.4883C45.2398 17.2257 45.523 17.0036 45.9776 16.9161C46.7899 16.7579 47.0843 17.1685 47.2259 17.2123L47.3004 17.1584C47.1998 16.8993 46.5291 16.6199 45.9478 16.7141C45.3889 16.805 45.0274 17.081 44.8113 17.3907C43.958 18.5922 45.5975 19.6322 45.8919 19.0466V19.0432ZM58.7659 28.9114C58.1883 29.046 58.4082 29.2783 58.5833 29.3489C59.1609 29.5778 59.5149 28.7364 58.7659 28.9114ZM46.1751 15.0481C45.9664 15.1054 45.8621 15.038 45.7242 15.1996C45.5789 15.3712 45.5155 15.2231 45.4038 15.4722C45.2845 15.7415 45.3479 15.4015 45.2659 15.9097C45.2361 16.0848 45.1839 16.1824 45.1653 16.3675C45.128 16.7983 45.0162 16.5997 44.6399 17.0272C44.461 17.2325 44.312 17.5286 44.2598 17.8383C44.2151 18.1075 44.2635 18.0503 44.1145 18.259C43.8499 18.6259 43.6375 18.9692 43.4661 19.3865C43.2314 19.962 43.2798 20.0967 43.7903 20.4972C43.9096 20.588 43.9915 20.6991 44.1331 20.7698C44.107 20.4669 44.0847 20.2481 44.2673 20.0193C44.4014 19.851 44.6585 19.6524 45.0051 19.7466C45.0013 19.7534 44.9902 19.7534 44.9864 19.7635C44.9603 19.851 44.461 19.851 44.3902 20.3861C44.3045 21.0222 44.7666 21.3588 45.1988 21.7358L46.0111 22.5402C46.1155 22.631 46.5663 23.0551 46.6073 23.1864C46.6856 23.4354 46.5403 23.3075 46.7377 23.597C46.8272 23.7282 46.9091 23.8494 46.9948 23.9807C47.1364 24.186 47.1104 24.1523 47.0694 24.4216L46.9203 25.4717C46.8868 25.7005 46.8309 25.8385 47.0545 25.926C47.3973 25.9731 47.2222 25.1317 47.36 24.6673C47.3936 24.6976 47.3712 24.6538 47.3936 24.7211L47.4234 24.9769C47.4345 25.0981 47.442 25.2192 47.4494 25.3404L47.5799 26.8146C47.591 26.9357 47.5799 27.0502 47.6879 27.1107C47.8109 27.1814 47.9301 27.1276 47.9823 27.0468C48.0456 26.9189 47.904 26.091 47.904 25.8654C48.2618 26.0337 48.1984 26.2054 48.7983 26.3467C49.2157 26.4443 49.6367 26.4174 50.0354 26.3097C50.2553 26.2491 50.3335 26.3636 50.5385 26.441C51.4178 26.7641 52.0997 26.7102 52.2749 26.7675C52.4463 26.8213 52.3717 27.2252 52.7183 27.7536C52.8114 27.8916 52.9046 28.0161 53.0127 28.1306C53.3555 28.4907 53.7094 28.8373 54.0224 29.2076C54.5106 29.7797 54.1641 29.8639 54.4025 30.1937C54.5777 30.436 54.7714 30.813 55.2707 30.6515C55.6769 30.5202 56.7202 29.5475 56.3327 29.1739C56.2097 29.0561 56.0756 28.9585 55.8148 28.9484C55.4906 28.935 55.5427 28.9282 55.3527 28.696L55.4645 28.4638C55.1776 28.1306 55.0807 28.5344 54.8907 28.6926C54.6522 28.5277 54.4659 28.0666 54.3355 27.7536L53.8995 26.7001L54.4063 26.7809C54.5777 27.3228 54.8459 27.8849 55.3378 28.2349L55.7812 28.6152C56.3215 29.1167 56.8991 29.2648 56.8954 29.9548C56.8954 30.187 57.0407 30.2812 57.1934 30.4562C57.3127 30.5942 57.4021 30.7693 57.6853 30.7625C57.9387 30.7558 58.1325 30.5909 58.2591 30.4933L59.2429 29.8067C59.5559 29.5542 59.9098 29.147 59.5223 28.8071C59.3956 28.696 59.1385 28.5984 58.8702 28.6253C58.6839 28.6421 58.3039 28.8609 58.2442 28.797C58.1809 28.632 58.587 28.3864 58.4007 28.245C58.1548 28.0599 58.0728 28.4638 57.9387 28.5984C57.8083 28.5445 57.7449 28.4133 57.6331 28.3762L57.458 28.5614C57.1375 28.2652 56.7538 27.4473 56.5004 27.0098C55.9862 26.1179 55.7216 25.5423 54.831 24.8894L54.0746 24.3543C53.7169 24.1254 52.7928 23.6071 52.3121 23.4724C52.286 23.0551 51.7457 22.9811 51.2092 22.6546C51.0489 22.5603 51.1943 22.5805 51.116 22.4223C51.0974 22.382 50.9856 22.2642 50.9372 22.207C50.8254 22.0723 50.8589 22.1161 50.6838 22.0555C50.6465 20.965 50.2106 20.8809 49.9646 20.5073C50.2255 20.164 50.4975 20.0226 50.8962 19.4572C50.9893 19.3293 51.2278 18.9894 51.198 18.811C51.1048 18.259 50.2851 17.4815 49.9385 17.0776C49.8268 16.9497 49.5771 16.6839 49.5622 16.492C49.5361 16.2093 49.592 15.7886 49.5473 15.5429L48.9697 15.213C48.7983 15.1962 48.6232 15.2063 48.4853 15.2299C48.3326 15.2534 48.2208 15.2972 48.1686 15.3208C48.1276 15.3376 48.1276 15.3443 48.0904 15.3611C48.0717 15.3847 48.0531 15.415 48.0345 15.4621C47.9413 15.6809 48.0717 15.6775 48.1053 15.8391C48.15 16.0376 48.1574 16.0242 48.381 16.0713C48.5114 16.5223 48.6232 18.5653 48.6344 19.1206C48.3884 19.1812 48.0754 19.2855 47.9674 19.4437L47.2743 19.3798C47.2818 19.2586 47.2557 19.2923 47.4196 19.2586C47.4904 19.2451 47.5724 19.235 47.6395 19.2148C47.8258 19.1576 47.7923 19.0836 47.796 18.9052C47.7997 18.7504 47.8295 18.8076 47.8444 18.7134C47.8668 18.5956 47.8146 18.6494 47.8183 18.5619C47.8183 18.4542 47.9674 18.4845 47.986 18.2758C47.9078 18.158 47.7699 18.0907 47.6916 17.9763C47.5836 17.8147 47.7028 17.8316 47.5873 17.5152C47.3563 17.5421 45.8956 18.3903 45.646 18.4542C45.6609 18.3633 45.6311 18.4037 45.7577 18.3398L46.1602 18.1345C46.3875 18.02 47.7103 17.3705 47.7997 17.2796C47.6507 16.9767 47.3004 16.6603 46.9762 16.5122C46.857 16.4584 46.7005 16.4382 46.5701 16.3843C46.6334 16.2934 47.2035 15.9097 46.8756 15.3914C46.8085 15.2905 46.7564 15.2433 46.7191 15.213C46.7042 15.2063 46.693 15.1996 46.6744 15.1895C46.6334 15.1693 46.5775 15.1457 46.4918 15.1188C46.4098 15.0919 46.3018 15.0582 46.2422 15.0448C46.2123 15.038 46.1937 15.0347 46.1751 15.0347V15.0481Z" fill="#45494E"/>
<path fill-rule="evenodd" clip-rule="evenodd" d="M48.5076 15.812L47.5873 13.4325L46.4992 15.5899L46.1117 15.4485L47.6394 12.416L48.9101 15.7009L48.5076 15.812Z" fill="#45494E"/>
<path d="M98.297 12.147H12.833V12.8437H98.297V12.147Z" fill="#45494E"/>
<path fill-rule="evenodd" clip-rule="evenodd" d="M79.3458 12.1468L86.664 0.6967H25.0924L32.4106 12.1468H31.5238L23.7584 0H87.998L80.2326 12.1468H79.3458ZM55.8782 48.863L66.6693 31.9807H67.5561L55.8782 50.2531C50.8031 42.3134 45.7318 34.3738 40.653 26.4375H41.5398L55.8745 48.863H55.8782Z" fill="#8FAD16"/>
<path fill-rule="evenodd" clip-rule="evenodd" d="M82.5021 28.982L81.7755 29.5105V30.675C81.7755 30.7423 81.7941 30.7894 81.8276 30.8264C81.8612 30.8635 81.917 30.887 81.999 30.9072V31.0116H80.4974V30.9072C80.5831 30.8837 80.639 30.8601 80.6725 30.8231C80.706 30.7894 80.7209 30.7389 80.7209 30.6716V26.9963C80.7209 26.9323 80.706 26.8819 80.6725 26.8516C80.639 26.8179 80.5831 26.791 80.4974 26.7674V26.6631H81.999V26.7674C81.9133 26.7876 81.8574 26.8145 81.8239 26.8482C81.7904 26.8819 81.7755 26.9323 81.7755 26.9929V28.5108L83.7392 27.0569C83.8323 26.9862 83.877 26.9323 83.877 26.8953C83.877 26.8347 83.81 26.791 83.6721 26.7674V26.6631H85.6544V26.7674C85.5724 26.7842 85.5128 26.7977 85.4793 26.8179C85.4458 26.8347 85.3414 26.9088 85.1737 27.0333L84.9017 27.2386L83.2659 28.4233L85.1216 30.436C85.293 30.6245 85.4159 30.7423 85.4942 30.7995C85.5724 30.8534 85.6656 30.8904 85.7811 30.9072V31.0082H83.9031V30.9039C84.0261 30.8803 84.0894 30.8399 84.0894 30.7827C84.0894 30.7524 84.0335 30.675 83.9217 30.5471L82.5058 28.9787L82.5021 28.982ZM76.257 28.531H77.8629C78.1834 28.531 78.407 28.5008 78.5337 28.4402C78.6156 28.3998 78.6827 28.3358 78.7349 28.2483C78.787 28.1608 78.8094 28.0632 78.8094 27.9555C78.8094 27.8478 78.7833 27.7569 78.7349 27.6694C78.6864 27.5819 78.6194 27.518 78.5337 27.4776C78.407 27.417 78.1834 27.3867 77.8629 27.3867H76.257V28.5344V28.531ZM76.257 29.2479V30.6817C76.257 30.7457 76.2756 30.7928 76.3091 30.8298C76.3427 30.8668 76.4023 30.8904 76.4805 30.9106V31.0149H74.9789V30.9106C75.0646 30.887 75.1205 30.8635 75.154 30.8264C75.1875 30.7928 75.2024 30.7423 75.2024 30.6817V27.0064C75.2024 26.9391 75.1838 26.8886 75.154 26.8549C75.1205 26.8213 75.0646 26.7944 74.9789 26.7708V26.6665H77.9785C78.3287 26.6665 78.6045 26.6866 78.8131 26.7304C79.0181 26.7742 79.2007 26.8448 79.3572 26.9492C79.5174 27.0569 79.6441 27.1982 79.7372 27.3766C79.8267 27.5584 79.8751 27.7536 79.8751 27.9555C79.8751 28.2483 79.7894 28.5041 79.6143 28.7263C79.4615 28.9147 79.264 29.0494 79.0181 29.1268C78.7721 29.2075 78.4256 29.2479 77.9785 29.2479H76.2532H76.257ZM72.3184 29.3085L71.5471 27.7738L70.7608 29.3085H72.3184ZM72.6202 29.9009H70.4515L70.1236 30.5134C70.0789 30.6009 70.0566 30.6649 70.0566 30.7154C70.0566 30.8096 70.1348 30.8769 70.295 30.9106V31.0149H68.704V30.9106C68.7971 30.8938 68.8716 30.8635 68.9201 30.8197C68.9685 30.776 69.0281 30.6952 69.0878 30.574L70.854 27.2386C70.9099 27.1343 70.9397 27.0468 70.9397 26.9828C70.9397 26.8852 70.8726 26.8145 70.7347 26.7741V26.6698H72.4376V26.7741C72.296 26.8112 72.2289 26.8718 72.2289 26.9626C72.2289 27.0232 72.2513 27.0939 72.296 27.1713L74.1256 30.5168C74.2038 30.6582 74.2709 30.7558 74.3305 30.8062C74.3901 30.8601 74.4684 30.8938 74.5653 30.9106V31.0149H72.7916V30.9106C72.9444 30.887 73.0226 30.8197 73.0226 30.712C73.0226 30.6649 73.0003 30.5976 72.9518 30.5134L72.6165 29.9009H72.6202ZM64.2027 29.12V30.6817C64.2027 30.7457 64.2176 30.7928 64.2512 30.8298C64.2847 30.8668 64.3443 30.8904 64.4226 30.9106V31.0149H62.9209V30.9106C63.0066 30.887 63.0625 30.8635 63.096 30.8264C63.1296 30.7928 63.1445 30.7423 63.1445 30.6817V27.003C63.1445 26.9391 63.1258 26.8886 63.096 26.8583C63.0625 26.8246 63.0066 26.7977 62.9209 26.7741V26.6698H68.2456V26.7741C68.1599 26.7943 68.104 26.8213 68.0705 26.8583C68.037 26.8919 68.0221 26.9424 68.0221 27.003V30.6817C68.0221 30.7457 68.0407 30.7928 68.0705 30.8264C68.104 30.8601 68.1599 30.887 68.2456 30.9106V31.0149H66.744V30.9106C66.826 30.8904 66.8856 30.8635 66.9154 30.8298C66.9489 30.7928 66.9676 30.7457 66.9676 30.6817V27.3867H64.199V29.12H64.2027Z" fill="#3A3C42"/>
<path fill-rule="evenodd" clip-rule="evenodd" d="M11.7375 21.9411C11.7375 20.7934 11.0705 19.9924 9.74028 19.5448C10.7463 19.0096 11.2494 18.2658 11.2494 17.3167C11.2494 16.7849 11.1041 16.307 10.8171 15.8761C10.5377 15.4622 10.1464 15.1256 9.65084 14.8664C8.78637 14.4154 7.71695 14.1899 6.45004 14.1899C4.63539 14.1899 2.99214 14.6409 1.52029 15.5396C1.31907 15.6607 1.16257 15.7247 1.04333 15.7247C0.938997 15.7247 0.778773 15.6776 0.562653 15.5901L0.342809 15.7449L2.36613 17.9831L2.5897 17.8249C2.51145 17.6869 2.47419 17.5657 2.47419 17.4681C2.47419 17.2123 2.69031 16.97 3.12255 16.7378C4.02056 16.2666 5.06017 16.031 6.2451 16.031C7.0835 16.031 7.72813 16.1521 8.179 16.4012C8.63359 16.6435 8.85716 16.9936 8.85716 17.4479C8.85716 17.9023 8.65595 18.2288 8.25352 18.4644C7.79147 18.7404 7.12821 18.8783 6.26373 18.8783C5.70853 18.8783 5.33591 18.8413 5.14588 18.774C4.95584 18.7 4.82542 18.5451 4.75462 18.3095H4.4677V20.9752H4.75462C4.81424 20.7564 4.94838 20.6083 5.16078 20.5343C5.37317 20.4602 5.7607 20.4232 6.32335 20.4232C7.24745 20.4232 7.94425 20.5545 8.41747 20.8136C8.8907 21.0728 9.12918 21.4565 9.12918 21.968C9.12918 22.557 8.79382 22.9912 8.12683 23.2672C7.59771 23.486 6.96799 23.5937 6.2302 23.5937C5.45142 23.5937 4.67265 23.4927 3.8976 23.2975C3.12628 23.0989 2.53009 22.8465 2.11275 22.5402C1.7923 22.3012 1.62835 22.0421 1.62835 21.7526C1.62835 21.7055 1.64325 21.6517 1.67306 21.5877L1.4085 21.4867L0 24.4048L0.253379 24.526C0.50676 24.3308 0.704248 24.2331 0.853296 24.2331C1.01352 24.2331 1.36379 24.3509 1.90781 24.5865C3.20825 25.152 4.65774 25.4347 6.25628 25.4347C7.76166 25.4347 9.02112 25.1654 10.0235 24.6337C11.1674 24.0245 11.7375 23.1326 11.7375 21.9579V21.9411Z" fill="#8FAD16"/>
<path fill-rule="evenodd" clip-rule="evenodd" d="M16.4962 21.638L23.14 15.4249C23.3002 15.2701 23.3822 15.1321 23.3822 15.0042C23.3822 14.8157 23.2592 14.6945 23.0059 14.6373V14.3782H27.0786V14.6373C26.8699 14.6878 26.7246 14.7585 26.6426 14.8426C26.5644 14.9268 26.5197 15.0479 26.5197 15.2095V24.381C26.5197 24.5459 26.5606 24.6704 26.6426 24.7546C26.7246 24.8387 26.8699 24.906 27.0786 24.9599V25.219H23.5685V24.9599C23.7772 24.906 23.9225 24.8387 24.0045 24.7546C24.0865 24.6704 24.1274 24.5459 24.1274 24.381V17.7977L17.3793 24.0646C17.0924 24.3305 16.9508 24.5156 16.9508 24.62C16.9508 24.7983 17.0738 24.9128 17.3197 24.9599V25.219H13.545V24.9599C13.7537 24.906 13.899 24.8387 13.981 24.7546C14.063 24.6704 14.104 24.5459 14.104 24.381V15.2095C14.104 15.0479 14.063 14.9268 13.981 14.8426C13.899 14.7585 13.7537 14.6878 13.545 14.6373V14.3782H17.0551V14.6373C16.8465 14.6878 16.7011 14.7585 16.6192 14.8426C16.5372 14.9268 16.4962 15.0479 16.4962 15.2095V21.638Z" fill="#8FAD16"/>
<path fill-rule="evenodd" clip-rule="evenodd" d="M41.957 24.3911V15.2095C41.957 15.0479 41.998 14.9268 42.08 14.8426C42.162 14.7585 42.3073 14.6878 42.5159 14.6373V14.3782H29.2321V14.6373C29.4407 14.6878 29.586 14.7585 29.668 14.8426C29.7463 14.9268 29.791 15.0479 29.791 15.2095V24.3911C29.791 24.5493 29.75 24.6738 29.668 24.7579C29.586 24.8421 29.4407 24.9094 29.2321 24.9633V25.2224H32.9769V24.9633C32.7719 24.9161 32.6303 24.8488 32.5446 24.7613C32.4627 24.6738 32.418 24.5526 32.418 24.3945V16.1721H39.33V24.3945C39.33 24.5526 39.2891 24.6772 39.2034 24.7613C39.1177 24.8522 38.9761 24.9161 38.7711 24.9633V25.2224H42.5159V24.9633C42.3073 24.9094 42.162 24.8421 42.08 24.7579C41.998 24.6738 41.957 24.5526 41.957 24.3911Z" fill="#8FAD16"/>
<path fill-rule="evenodd" clip-rule="evenodd" d="M68.7486 23.7855L64.184 15.4386C64.0723 15.2434 64.0201 15.0684 64.0201 14.9169C64.0201 14.6948 64.1915 14.54 64.538 14.4491V14.1899H60.2864V14.4491C60.6293 14.5534 60.7969 14.7284 60.7969 14.9708C60.7969 15.1323 60.7299 15.3444 60.5883 15.6069L56.1765 23.9302C56.02 24.2365 55.8783 24.4418 55.7591 24.5495C55.6361 24.6539 55.4573 24.7279 55.2225 24.7717V25.0308H59.1909V24.7717C58.7997 24.6808 58.5985 24.5192 58.5985 24.2836C58.5985 24.1625 58.6544 23.9976 58.7661 23.7821L59.0643 23.2234L61.2329 19.0601L62.3172 16.9431L63.9008 20.0934L65.3168 22.8431L65.8273 23.7821C65.9465 23.9976 66.0061 24.1625 66.0061 24.2769C66.0061 24.5462 65.8124 24.7111 65.4286 24.7683V25.0275H69.8553V24.7683C69.6094 24.7245 69.4156 24.6404 69.2666 24.5091C69.1212 24.3779 68.9536 24.1389 68.7561 23.7821L68.7486 23.7855Z" fill="#8FAD16"/>
<path fill-rule="evenodd" clip-rule="evenodd" d="M77.475 16.9397L79.4015 20.7699H75.5151L77.4788 16.9397H77.475ZM83.9139 23.7855L79.3493 15.4386C79.2375 15.2434 79.1854 15.0684 79.1854 14.9169C79.1854 14.6948 79.3568 14.54 79.7033 14.4491V14.1899H75.4517V14.4491C75.7945 14.5534 75.9622 14.7284 75.9622 14.9708C75.9622 15.1323 75.8951 15.3444 75.7535 15.6069L71.3417 23.9302C71.1852 24.2365 71.0436 24.4418 70.9244 24.5495C70.8014 24.6539 70.6188 24.7279 70.3878 24.7717V25.0308H74.3562V24.7717C73.9612 24.6808 73.7637 24.5192 73.7637 24.2836C73.7637 24.1625 73.8234 23.9942 73.9314 23.7821L74.7475 22.2508H80.1579L80.9926 23.7821C81.1118 23.9976 81.1714 24.1625 81.1714 24.2769C81.1714 24.5462 80.9777 24.7111 80.5939 24.7683V25.0275H85.0206V24.7683C84.7747 24.7245 84.5809 24.6404 84.4318 24.5091C84.2865 24.3779 84.1188 24.1389 83.9214 23.7821L83.9139 23.7855Z" fill="#8FAD16"/>
<path fill-rule="evenodd" clip-rule="evenodd" d="M88.9966 21.4429L95.6404 15.2298C95.8006 15.075 95.8826 14.937 95.8826 14.8091C95.8826 14.6206 95.7597 14.4995 95.5063 14.4423V14.1831H99.579V14.4423C99.3703 14.4928 99.225 14.5634 99.1431 14.6476C99.0648 14.7317 99.0201 14.8529 99.0201 15.0144V24.1859C99.0201 24.3508 99.0611 24.4754 99.1431 24.5595C99.225 24.6437 99.3703 24.711 99.579 24.7648V25.024H96.0689V24.7648C96.2776 24.711 96.4229 24.6437 96.5012 24.5595C96.5831 24.4754 96.6241 24.3508 96.6241 24.1859V17.6026L89.876 23.8696C89.5891 24.1354 89.4475 24.3206 89.4475 24.4249C89.4475 24.6033 89.5705 24.7177 89.8164 24.7682V25.0274H86.0417V24.7682C86.2504 24.7143 86.3957 24.647 86.4777 24.5629C86.556 24.4787 86.6007 24.3542 86.6007 24.1893V15.0178C86.6007 14.8596 86.5597 14.7351 86.4777 14.6509C86.3957 14.5668 86.2504 14.4961 86.0417 14.4456V14.1865H89.5518V14.4456C89.3432 14.4961 89.1978 14.5668 89.1159 14.6509C89.0376 14.7351 88.9929 14.8562 88.9929 15.0178V21.4463L88.9966 21.4429Z" fill="#8FAD16"/>
<path fill-rule="evenodd" clip-rule="evenodd" d="M104.919 18.5081V15.0145C104.919 14.8563 104.96 14.7318 105.042 14.6476C105.124 14.5601 105.269 14.4928 105.477 14.4457V14.1865H101.733V14.4457C101.941 14.4962 102.087 14.5668 102.169 14.651C102.247 14.7351 102.292 14.8563 102.292 15.0178V24.1994C102.292 24.361 102.251 24.4822 102.169 24.5663C102.087 24.6504 101.941 24.7178 101.733 24.7716V25.0308H105.477V24.7716C105.273 24.7245 105.131 24.6572 105.045 24.5663C104.96 24.4788 104.919 24.3576 104.919 24.1994V20.2986H111.831V24.1994C111.831 24.361 111.79 24.4822 111.704 24.5663C111.618 24.6572 111.477 24.7211 111.272 24.7716V25.0308H115.017V24.7716C114.808 24.7178 114.663 24.6504 114.581 24.5663C114.499 24.4822 114.458 24.361 114.458 24.1994V15.0178C114.458 14.8597 114.499 14.7351 114.581 14.651C114.659 14.5668 114.808 14.4962 115.017 14.4457V14.1865H111.272V14.4457C111.48 14.4928 111.626 14.5601 111.708 14.6476C111.786 14.7351 111.831 14.8563 111.831 15.0145V18.5081H104.919Z" fill="#8FAD16"/>
</svg>
