<svg width="250" height="159" viewBox="0 0 181 79" fill="none" xmlns="http://www.w3.org/2000/svg">
<path fill-rule="evenodd" clip-rule="evenodd" d="M70.105 30.3421C70.7848 30.3839 70.8785 30.4362 71.4 30.6299C71.2125 30.9805 70.9723 31.059 71.0192 31.5718C71.0953 32.3202 71.9567 32.6603 72.777 32.4981C73.2927 32.3934 73.4157 32.226 73.697 32.0376C73.738 33.079 73.8552 33.7331 74.4588 34.4553C75.8417 36.0985 78.2676 36.3079 78.959 34.7379C79.3281 33.8954 78.8477 32.7493 78.2558 32.4405C78.2968 32.6028 78.4199 32.7807 78.4902 32.9639C78.5664 33.1522 78.6367 33.3668 78.666 33.5918C79.0117 36.1718 75.1561 35.9206 74.365 33.0581C74.1892 32.4092 74.2361 31.6451 74.5701 31.0381C74.6756 30.8392 74.8279 30.7241 74.9217 30.5514H74.283C74.072 30.7555 73.8669 31.1584 73.6443 31.3991C72.988 32.1004 72.0153 32.383 71.5758 31.6974C71.3531 31.3521 71.5172 30.813 71.6344 30.4729C71.4996 30.3892 71.1539 30.3159 70.8844 30.1589C70.6148 30.0071 70.4683 29.8187 70.2691 29.6984L70.0933 30.3421H70.105ZM79.6387 40.7613C80.0958 41.0596 81.4435 40.6828 82.0646 39.8402C82.299 39.521 82.4924 39.0971 82.5392 38.6366C82.6096 37.972 82.422 37.7679 82.2873 37.2289C83.0373 37.3754 84.9417 38.5267 85.6683 39.0448L86.9574 40.0914C86.8754 39.8088 86.0316 39.1809 85.762 38.9663C85.0882 38.4325 83.5002 37.5534 82.6799 37.1975C82.0002 36.8992 82.4865 37.2707 81.9181 36.7422C81.7423 36.58 81.4728 36.3079 81.215 36.2294C81.4259 36.737 82.3224 37.5272 81.7248 39.0239C81.4786 39.6361 80.963 40.1752 80.3536 40.4787C80.1544 40.5781 79.8262 40.6775 79.6446 40.7665L79.6387 40.7613ZM74.6814 36.9463C74.74 37.1085 74.7928 37.2132 74.8689 37.3806C74.9627 37.5952 74.9217 37.6423 75.1209 37.7784C75.7948 38.2284 77.1718 37.8255 77.8691 37.4853C78.0214 37.4121 78.1738 37.3022 78.3261 37.2603C78.2441 37.119 78.0039 36.8992 77.8808 36.7945C77.6757 36.6271 77.5761 36.4648 77.3945 36.3393C76.4335 36.7003 75.9647 36.9254 74.6814 36.9463ZM72.1676 29.6094C70.8902 29.8292 69.9703 28.3901 70.8434 27.1917C71.1422 26.7835 71.5875 26.4381 72.3024 26.3021C73.5798 26.0561 74.0427 26.6945 74.2654 26.7626L74.3826 26.6788C74.2244 26.2759 73.1696 25.8415 72.2555 25.9881C71.3766 26.1294 70.8082 26.5585 70.4683 27.0399C69.1265 28.9082 71.7047 30.5252 72.1676 29.6146V29.6094ZM92.4128 44.953C91.5045 45.1624 91.8502 45.5235 92.1256 45.6334C93.0339 45.9892 93.5906 44.6809 92.4128 44.953ZM72.613 23.3976C72.2848 23.4866 72.1208 23.3819 71.904 23.6331C71.6754 23.9 71.5758 23.6698 71.4 24.057C71.2125 24.4757 71.3121 23.9471 71.1832 24.7373C71.1363 25.0095 71.0543 25.1612 71.025 25.449C70.9664 26.1189 70.7906 25.8101 70.1988 26.4747C69.9175 26.794 69.6831 27.2545 69.6011 27.7359C69.5308 28.1546 69.607 28.0656 69.3726 28.3901C68.9566 28.9605 68.6225 29.4943 68.353 30.1432C67.9838 31.0381 68.06 31.2474 68.8628 31.8701C69.0503 32.0114 69.1792 32.1841 69.4019 32.294C69.3609 31.823 69.3257 31.4829 69.6128 31.127C69.8238 30.8654 70.2281 30.5566 70.773 30.7031C70.7672 30.7136 70.7496 30.7136 70.7437 30.7293C70.7027 30.8654 69.9175 30.8654 69.8062 31.6974C69.6714 32.6865 70.398 33.2098 71.0777 33.7959L72.3552 35.0467C72.5192 35.188 73.2282 35.8473 73.2927 36.0514C73.4158 36.4387 73.1872 36.2398 73.4978 36.6899C73.6384 36.894 73.7673 37.0824 73.9021 37.2865C74.1248 37.6057 74.0837 37.5533 74.0193 37.972L73.7849 39.6047C73.7322 39.9606 73.6443 40.1752 73.9959 40.3112C74.5349 40.3845 74.2595 39.0762 74.4764 38.354C74.5291 38.4011 74.4939 38.3331 74.5291 38.4378L74.576 38.8355C74.5935 39.0239 74.6053 39.2123 74.617 39.4007L74.8221 41.6928C74.8397 41.8812 74.8221 42.0591 74.992 42.1533C75.1854 42.2632 75.3729 42.1795 75.4549 42.0539C75.5545 41.855 75.3319 40.5676 75.3319 40.217C75.8944 40.4787 75.7948 40.7456 76.7382 40.9654C77.3945 41.1171 78.0566 41.0753 78.6836 40.9078C79.0293 40.8136 79.1524 40.9915 79.4746 41.1119C80.8575 41.6143 81.9298 41.5305 82.2052 41.6195C82.4748 41.7032 82.3576 42.3312 82.9025 43.1528C83.049 43.3674 83.1955 43.561 83.3654 43.7389C83.9045 44.2989 84.4612 44.8379 84.9534 45.4135C85.721 46.3032 85.1761 46.434 85.5511 46.9469C85.8265 47.3237 86.1312 47.9098 86.9164 47.6586C87.5551 47.4545 89.1958 45.9421 88.5864 45.3612C88.393 45.1781 88.1821 45.0263 87.7719 45.0106C87.2621 44.9897 87.3442 44.9792 87.0453 44.6181L87.2211 44.257C86.7699 43.7389 86.6176 44.3669 86.3187 44.6129C85.9437 44.3565 85.6507 43.6395 85.4456 43.1528L84.76 41.5149L85.557 41.6404C85.8265 42.483 86.2484 43.3569 87.0219 43.9012L87.7192 44.4925C88.5688 45.2722 89.4771 45.5025 89.4712 46.5753C89.4712 46.9364 89.6997 47.0829 89.94 47.355C90.1275 47.5696 90.2681 47.8417 90.7135 47.8313C91.1119 47.8208 91.4166 47.5644 91.6159 47.4126L93.1628 46.3451C93.655 45.9526 94.2117 45.3194 93.6023 44.7908C93.403 44.6181 92.9987 44.4663 92.5768 44.5082C92.2838 44.5344 91.6862 44.8745 91.5924 44.7751C91.4928 44.5187 92.1315 44.1367 91.8385 43.9169C91.4518 43.629 91.3229 44.257 91.1119 44.4663C90.9068 44.3826 90.8072 44.1785 90.6314 44.121L90.356 44.4088C89.8521 43.9483 89.2486 42.6766 88.8501 41.9963C88.0415 40.6095 87.6254 39.7146 86.225 38.6994L85.0355 37.8673C84.4729 37.5115 83.0197 36.7056 82.2638 36.4962C82.2228 35.8473 81.3732 35.7322 80.5294 35.2246C80.2774 35.0781 80.5059 35.1095 80.3829 34.8635C80.3536 34.8007 80.1778 34.6175 80.1016 34.5286C79.9258 34.3193 79.9786 34.3873 79.7032 34.2931C79.6446 32.5975 78.959 32.4667 78.5723 31.8858C78.9824 31.352 79.4102 31.1323 80.0372 30.2531C80.1837 30.0542 80.5587 29.5257 80.5118 29.2483C80.3653 28.3901 79.0762 27.1812 78.5312 26.5532C78.3554 26.3544 77.9629 25.941 77.9394 25.6427C77.8984 25.2031 77.9863 24.5489 77.916 24.1669L77.0077 23.6541C76.7382 23.6279 76.4628 23.6436 76.246 23.6802C76.0057 23.7169 75.8299 23.7849 75.7479 23.8215C75.6834 23.8477 75.6834 23.8582 75.6248 23.8843C75.5955 23.921 75.5662 23.9681 75.537 24.0413C75.3905 24.3815 75.5955 24.3762 75.6483 24.6274C75.7186 24.9362 75.7303 24.9153 76.0819 24.9885C76.287 25.6898 76.4628 28.8663 76.4803 29.7298C76.0936 29.824 75.6014 29.9862 75.4315 30.2321L74.3416 30.1327C74.3533 29.9443 74.3123 29.9967 74.5701 29.9443C74.6814 29.9234 74.8104 29.9077 74.9158 29.8763C75.2088 29.7873 75.1561 29.6722 75.1619 29.3949C75.1678 29.1541 75.2147 29.2431 75.2381 29.0966C75.2733 28.9134 75.1912 28.9971 75.1971 28.8611C75.1971 28.6936 75.4315 28.7407 75.4608 28.4162C75.3377 28.2331 75.1209 28.1284 74.9979 27.9505C74.8279 27.6993 75.0154 27.7255 74.8338 27.2336C74.4705 27.2754 72.1735 28.5942 71.7809 28.6936C71.8043 28.5523 71.7575 28.6151 71.9567 28.5157L72.5895 28.1965C72.947 28.0185 75.0272 27.0085 75.1678 26.8672C74.9334 26.3962 74.3826 25.9043 73.8728 25.6741C73.6853 25.5903 73.4392 25.5589 73.2341 25.4752C73.3337 25.3339 74.2302 24.7373 73.7146 23.9314C73.6091 23.7744 73.5271 23.7012 73.4685 23.6541C73.445 23.6436 73.4275 23.6331 73.3982 23.6174C73.3337 23.586 73.2458 23.5494 73.111 23.5075C72.9821 23.4657 72.8122 23.4133 72.7184 23.3924C72.6716 23.3819 72.6423 23.3767 72.613 23.3767V23.3976Z" fill="white"/>
<path fill-rule="evenodd" clip-rule="evenodd" d="M76.2809 24.5854L74.8336 20.8856L73.1226 24.2401L72.5132 24.0203L74.9156 19.3052L76.9138 24.4127L76.2809 24.5854Z" fill="white"/>
<path d="M154.578 18.8865H20.1807V19.9697H154.578V18.8865Z" fill="white"/>
<path fill-rule="evenodd" clip-rule="evenodd" d="M124.776 18.8865L136.284 1.08327H39.4591L50.9675 18.8865H49.5729L37.3613 0H138.382L126.17 18.8865H124.776ZM87.8716 75.975L104.841 49.7255H106.236L87.8716 78.1363C79.8907 65.7913 71.9157 53.4463 63.929 41.1065H65.3236L87.8657 75.975H87.8716Z" fill="#8FAD16"/>
<path fill-rule="evenodd" clip-rule="evenodd" d="M129.739 45.0629L128.596 45.8845V47.6952C128.596 47.7999 128.625 47.8731 128.678 47.9307C128.731 47.9883 128.819 48.0249 128.948 48.0563V48.2185H126.586V48.0563C126.721 48.0197 126.809 47.983 126.862 47.9255C126.914 47.8731 126.938 47.7946 126.938 47.69V41.9754C126.938 41.8759 126.914 41.7974 126.862 41.7503C126.809 41.698 126.721 41.6561 126.586 41.6195V41.4573H128.948V41.6195C128.813 41.6509 128.725 41.6928 128.672 41.7451C128.62 41.7974 128.596 41.8759 128.596 41.9701V44.3303L131.684 42.0696C131.831 41.9597 131.901 41.8759 131.901 41.8184C131.901 41.7242 131.796 41.6561 131.579 41.6195V41.4573H134.696V41.6195C134.567 41.6457 134.473 41.6666 134.421 41.698C134.368 41.7242 134.204 41.8393 133.94 42.0329L133.512 42.3521L130.94 44.1942L133.858 47.3236C134.128 47.6167 134.321 47.7999 134.444 47.8888C134.567 47.9726 134.714 48.0301 134.895 48.0563V48.2133H131.942V48.0511C132.135 48.0144 132.235 47.9516 132.235 47.8627C132.235 47.8156 132.147 47.6952 131.971 47.4963L129.745 45.0577L129.739 45.0629ZM119.918 44.3617H122.444C122.947 44.3617 123.299 44.3146 123.498 44.2204C123.627 44.1576 123.733 44.0582 123.815 43.9221C123.897 43.786 123.932 43.6343 123.932 43.4668C123.932 43.2993 123.891 43.158 123.815 43.022C123.739 42.8859 123.633 42.7865 123.498 42.7237C123.299 42.6295 122.947 42.5824 122.444 42.5824H119.918V44.3669V44.3617ZM119.918 45.4763V47.7057C119.918 47.8051 119.947 47.8784 120 47.9359C120.053 47.9935 120.147 48.0301 120.27 48.0615V48.2237H117.908V48.0615C118.043 48.0249 118.131 47.9883 118.184 47.9307C118.236 47.8784 118.26 47.7999 118.26 47.7057V41.9911C118.26 41.8864 118.23 41.8079 118.184 41.7556C118.131 41.7032 118.043 41.6614 117.908 41.6247V41.4625H122.625C123.176 41.4625 123.61 41.4939 123.938 41.5619C124.26 41.63 124.547 41.7399 124.793 41.9021C125.045 42.0696 125.244 42.2893 125.391 42.5667C125.532 42.8493 125.608 43.1528 125.608 43.4668C125.608 43.9221 125.473 44.3198 125.198 44.6652C124.957 44.9583 124.647 45.1676 124.26 45.288C123.873 45.4135 123.328 45.4763 122.625 45.4763H119.912H119.918ZM113.724 45.5705L112.511 43.1842L111.275 45.5705H113.724ZM114.199 46.4916H110.789L110.273 47.444C110.203 47.5801 110.168 47.6795 110.168 47.758C110.168 47.9045 110.291 48.0092 110.543 48.0615V48.2237H108.04V48.0615C108.187 48.0354 108.304 47.9883 108.38 47.9202C108.457 47.8522 108.55 47.7266 108.644 47.5382L111.422 42.3521C111.509 42.1899 111.556 42.0539 111.556 41.9544C111.556 41.8027 111.451 41.6928 111.234 41.63V41.4677H113.912V41.63C113.689 41.6875 113.584 41.7817 113.584 41.923C113.584 42.0172 113.619 42.1271 113.689 42.2475L116.566 47.4493C116.689 47.669 116.795 47.8208 116.889 47.8993C116.982 47.983 117.105 48.0354 117.258 48.0615V48.2237H114.469V48.0615C114.709 48.0249 114.832 47.9202 114.832 47.7528C114.832 47.6795 114.797 47.5748 114.72 47.444L114.193 46.4916H114.199ZM100.962 45.2775V47.7057C100.962 47.8051 100.985 47.8784 101.038 47.9359C101.091 47.9935 101.185 48.0301 101.308 48.0615V48.2237H98.9463V48.0615C99.0811 48.0249 99.169 47.9883 99.2217 47.9307C99.2744 47.8784 99.2979 47.7999 99.2979 47.7057V41.9858C99.2979 41.8864 99.2686 41.8079 99.2217 41.7608C99.169 41.7085 99.0811 41.6666 98.9463 41.63V41.4677H107.32V41.63C107.185 41.6614 107.097 41.7032 107.044 41.7608C106.992 41.8131 106.968 41.8916 106.968 41.9858V47.7057C106.968 47.8051 106.997 47.8784 107.044 47.9307C107.097 47.983 107.185 48.0249 107.32 48.0615V48.2237H104.958V48.0615C105.087 48.0301 105.181 47.9883 105.228 47.9359C105.281 47.8784 105.31 47.8051 105.31 47.7057V42.5824H100.956V45.2775H100.962Z" fill="white"/>
<path fill-rule="evenodd" clip-rule="evenodd" d="M18.4579 34.115C18.4579 32.3304 17.409 31.085 15.3171 30.3889C16.8993 29.5569 17.6903 28.4004 17.6903 26.9246C17.6903 26.0978 17.4618 25.3546 17.0106 24.6848C16.5711 24.0411 15.9558 23.5178 15.1765 23.1149C13.8171 22.4136 12.1354 22.063 10.1431 22.063C7.28941 22.063 4.70531 22.7642 2.39074 24.1615C2.07432 24.3499 1.82821 24.4493 1.6407 24.4493C1.47663 24.4493 1.22467 24.376 0.884805 24.24L0.539088 24.4807L3.72088 27.9608L4.07246 27.7148C3.94941 27.5002 3.89081 27.3118 3.89081 27.1601C3.89081 26.7624 4.23067 26.3856 4.91039 26.0245C6.32257 25.2919 7.95741 24.9255 9.82079 24.9255C11.1392 24.9255 12.1529 25.1139 12.862 25.5012C13.5768 25.878 13.9284 26.4222 13.9284 27.1287C13.9284 27.8352 13.612 28.3428 12.9791 28.7091C12.2525 29.1382 11.2095 29.3528 9.85009 29.3528C8.977 29.3528 8.39103 29.2952 8.09219 29.1906C7.79335 29.0754 7.58826 28.8347 7.47692 28.4684H7.02573V32.613H7.47692C7.57068 32.2729 7.78162 32.0426 8.11562 31.9275C8.44962 31.8124 9.05903 31.7548 9.94384 31.7548C11.397 31.7548 12.4928 31.9589 13.237 32.3618C13.9811 32.7648 14.3562 33.3614 14.3562 34.1568C14.3562 35.0726 13.8288 35.7477 12.7799 36.1768C11.9478 36.517 10.9576 36.6844 9.79735 36.6844C8.57268 36.6844 7.34801 36.5274 6.1292 36.2239C4.91625 35.9152 3.97871 35.5227 3.32243 35.0465C2.8185 34.6749 2.56067 34.272 2.56067 33.8219C2.56067 33.7486 2.5841 33.6649 2.63098 33.5655L2.21495 33.4085L0 37.9456L0.398453 38.134C0.796909 37.8305 1.10747 37.6787 1.34186 37.6787C1.59382 37.6787 2.14463 37.8619 3.00014 38.2282C5.04516 39.1074 7.32457 39.547 9.83836 39.547C12.2057 39.547 14.1862 39.1283 15.7625 38.3015C17.5614 37.3543 18.4579 35.9675 18.4579 34.1411V34.115Z" fill="#8FAD16"/>
<path fill-rule="evenodd" clip-rule="evenodd" d="M25.9407 33.6441L36.3884 23.9837C36.6404 23.743 36.7693 23.5284 36.7693 23.3296C36.7693 23.0365 36.5759 22.8481 36.1775 22.7592V22.3562H42.5821V22.7592C42.254 22.8377 42.0254 22.9476 41.8965 23.0784C41.7735 23.2092 41.7031 23.3976 41.7031 23.6488V37.9092C41.7031 38.1656 41.7676 38.3592 41.8965 38.49C42.0254 38.6209 42.254 38.7255 42.5821 38.8093V39.2122H37.0623V38.8093C37.3904 38.7255 37.619 38.6209 37.7479 38.49C37.8768 38.3592 37.9412 38.1656 37.9412 37.9092V27.6731L27.3294 37.4172C26.8782 37.8307 26.6555 38.1185 26.6555 38.2807C26.6555 38.5581 26.8489 38.736 27.2356 38.8093V39.2122H21.2998V38.8093C21.6279 38.7255 21.8565 38.6209 21.9854 38.49C22.1143 38.3592 22.1788 38.1656 22.1788 37.9092V23.6488C22.1788 23.3976 22.1143 23.2092 21.9854 23.0784C21.8565 22.9476 21.6279 22.8377 21.2998 22.7592V22.3562H26.8196V22.7592C26.4915 22.8377 26.2629 22.9476 26.134 23.0784C26.0051 23.2092 25.9407 23.3976 25.9407 23.6488V33.6441Z" fill="#8FAD16"/>
<path fill-rule="evenodd" clip-rule="evenodd" d="M65.98 37.9249V23.6488C65.98 23.3976 66.0444 23.2092 66.1733 23.0784C66.3023 22.9476 66.5308 22.8377 66.8589 22.7592V22.3562H45.9692V22.7592C46.2974 22.8377 46.5259 22.9476 46.6548 23.0784C46.7779 23.2092 46.8482 23.3976 46.8482 23.6488V37.9249C46.8482 38.1708 46.7837 38.3644 46.6548 38.4953C46.5259 38.6261 46.2974 38.7308 45.9692 38.8145V39.2174H51.8582V38.8145C51.5359 38.7412 51.3132 38.6366 51.1785 38.5005C51.0496 38.3644 50.9792 38.1761 50.9792 37.9301V25.1455H61.8489V37.9301C61.8489 38.1761 61.7845 38.3697 61.6497 38.5005C61.5149 38.6418 61.2922 38.7412 60.97 38.8145V39.2174H66.8589V38.8145C66.5308 38.7308 66.3023 38.6261 66.1733 38.4953C66.0444 38.3644 65.98 38.176 65.98 37.9249Z" fill="#8FAD16"/>
<path fill-rule="evenodd" clip-rule="evenodd" d="M108.111 36.9827L100.933 24.0045C100.757 23.701 100.675 23.4288 100.675 23.1934C100.675 22.848 100.945 22.6072 101.489 22.4659V22.063H94.8036V22.4659C95.3427 22.6282 95.6064 22.9003 95.6064 23.2771C95.6064 23.5283 95.5009 23.858 95.2783 24.2661L88.3404 37.2078C88.0943 37.684 87.8716 38.0032 87.6841 38.1707C87.4908 38.3329 87.2095 38.448 86.8403 38.516V38.919H93.0809V38.516C92.4656 38.3748 92.1492 38.1236 92.1492 37.7572C92.1492 37.5688 92.2371 37.3124 92.4129 36.9775L92.8817 36.1088L96.292 29.6354L97.9971 26.3437L100.487 31.242L102.714 35.5174L103.517 36.9775C103.704 37.3124 103.798 37.5688 103.798 37.7468C103.798 38.1654 103.493 38.4218 102.89 38.5108V38.9138H109.851V38.5108C109.464 38.4428 109.16 38.312 108.925 38.1079C108.697 37.9038 108.433 37.5322 108.123 36.9775L108.111 36.9827Z" fill="#8FAD16"/>
<path fill-rule="evenodd" clip-rule="evenodd" d="M121.834 26.3385L124.863 32.2938H118.752L121.84 26.3385H121.834ZM131.96 36.9827L124.781 24.0045C124.606 23.701 124.524 23.4288 124.524 23.1934C124.524 22.848 124.793 22.6072 125.338 22.4659V22.063H118.652V22.4659C119.191 22.6282 119.455 22.9003 119.455 23.2771C119.455 23.5283 119.35 23.858 119.127 24.2661L112.189 37.2078C111.943 37.684 111.72 38.0032 111.533 38.1707C111.339 38.3329 111.052 38.448 110.689 38.516V38.919H116.929V38.516C116.308 38.3748 115.998 38.1236 115.998 37.7572C115.998 37.5688 116.092 37.3072 116.262 36.9775L117.545 34.5964H126.053L127.366 36.9775C127.553 37.3124 127.647 37.5688 127.647 37.7468C127.647 38.1654 127.342 38.4218 126.739 38.5108V38.9138H133.7V38.5108C133.313 38.4428 133.008 38.312 132.774 38.1079C132.545 37.9038 132.282 37.5322 131.971 36.9775L131.96 36.9827Z" fill="#8FAD16"/>
<path fill-rule="evenodd" clip-rule="evenodd" d="M139.952 33.3404L150.4 23.68C150.652 23.4393 150.781 23.2247 150.781 23.0259C150.781 22.7328 150.587 22.5444 150.189 22.4554V22.0525H156.594V22.4554C156.265 22.5339 156.037 22.6438 155.908 22.7747C155.785 22.9055 155.715 23.0939 155.715 23.3451V37.6055C155.715 37.8619 155.779 38.0555 155.908 38.1863C156.037 38.3172 156.265 38.4218 156.594 38.5056V38.9085H151.074V38.5056C151.402 38.4218 151.63 38.3172 151.753 38.1863C151.882 38.0555 151.947 37.8619 151.947 37.6055V27.3694L141.335 37.1135C140.884 37.527 140.661 37.8148 140.661 37.977C140.661 38.2544 140.855 38.4323 141.241 38.5108V38.9137H135.305V38.5108C135.634 38.427 135.862 38.3224 135.991 38.1916C136.114 38.0607 136.184 37.8671 136.184 37.6107V23.3503C136.184 23.1044 136.12 22.9107 135.991 22.7799C135.862 22.6491 135.634 22.5392 135.305 22.4607V22.0577H140.825V22.4607C140.497 22.5392 140.269 22.6491 140.14 22.7799C140.017 22.9107 139.946 23.0991 139.946 23.3503V33.3457L139.952 33.3404Z" fill="#8FAD16"/>
<path fill-rule="evenodd" clip-rule="evenodd" d="M164.99 28.7772V23.3452C164.99 23.0993 165.055 22.9056 165.184 22.7748C165.313 22.6387 165.541 22.5341 165.869 22.4608V22.0579H159.98V22.4608C160.309 22.5393 160.537 22.6492 160.666 22.78C160.789 22.9109 160.859 23.0993 160.859 23.3504V37.6265C160.859 37.8777 160.795 38.0661 160.666 38.1969C160.537 38.3277 160.309 38.4324 159.98 38.5162V38.9191H165.869V38.5162C165.547 38.4429 165.324 38.3382 165.19 38.1969C165.055 38.0609 164.99 37.8725 164.99 37.6265V31.5613H175.86V37.6265C175.86 37.8777 175.796 38.0661 175.661 38.1969C175.526 38.3382 175.303 38.4377 174.981 38.5162V38.9191H180.87V38.5162C180.542 38.4324 180.313 38.3277 180.185 38.1969C180.056 38.0661 179.991 37.8777 179.991 37.6265V23.3504C179.991 23.1045 180.056 22.9109 180.185 22.78C180.308 22.6492 180.542 22.5393 180.87 22.4608V22.0579H174.981V22.4608C175.309 22.5341 175.538 22.6387 175.667 22.7748C175.79 22.9109 175.86 23.0993 175.86 23.3452V28.7772H164.99Z" fill="#8FAD16"/>
</svg>
