<svg width="51" height="51" viewBox="0 0 51 51" fill="none" xmlns="http://www.w3.org/2000/svg">
<path d="M21.903 15.3423C23.2674 11.9409 23.9496 10.2401 25.058 10.0044C25.3494 9.94245 25.6506 9.94245 25.942 10.0044C27.0504 10.2401 27.7326 11.9409 29.097 15.3423C29.8729 17.2767 30.2609 18.2439 30.9868 18.9017C31.1904 19.0862 31.4114 19.2505 31.6468 19.3924C32.4858 19.8981 33.5332 19.9919 35.628 20.1795C39.1741 20.4971 40.9472 20.6558 41.4886 21.6668C41.6008 21.8762 41.677 22.1029 41.7142 22.3375C41.8937 23.4701 40.5902 24.656 37.9833 27.0278L37.2594 27.6864C36.0406 28.7952 35.4312 29.3497 35.0787 30.0416C34.8673 30.4566 34.7255 30.9036 34.6591 31.3647C34.5483 32.1332 34.7268 32.9375 35.0837 34.5461L35.2112 35.1209C35.8512 38.0056 36.1713 39.448 35.7718 40.157C35.4129 40.7938 34.752 41.2015 34.0218 41.2364C33.209 41.2752 32.0636 40.3419 29.7729 38.4753C28.2637 37.2456 27.5091 36.6307 26.6714 36.3905C25.9059 36.171 25.0941 36.171 24.3286 36.3905C23.4909 36.6307 22.7363 37.2456 21.2271 38.4753C18.9364 40.3419 17.791 41.2752 16.9782 41.2364C16.248 41.2015 15.587 40.7938 15.2282 40.157C14.8287 39.448 15.1487 38.0056 15.7888 35.1209L15.9163 34.5461C16.2732 32.9375 16.4517 32.1332 16.3409 31.3647C16.2745 30.9036 16.1327 30.4566 15.9213 30.0416C15.5688 29.3497 14.9594 28.7952 13.7406 27.6864L13.0167 27.0278C10.4098 24.656 9.1063 23.4701 9.28581 22.3375C9.32298 22.1029 9.39923 21.8762 9.51137 21.6668C10.0528 20.6558 11.8259 20.4971 15.372 20.1795C17.4668 19.9919 18.5142 19.8981 19.3532 19.3924C19.5886 19.2505 19.8096 19.0862 20.0132 18.9017C20.7391 18.2439 21.1271 17.2767 21.903 15.3423Z" fill="#8FAD16" stroke="#8FAD16" stroke-width="2"/>
</svg>
