<svg width="33" height="33" viewBox="0 0 33 33" fill="none" xmlns="http://www.w3.org/2000/svg">
<path d="M15.8251 32.9446H17.1945C24.6287 32.9446 28.3466 32.9446 30.6554 30.6357C32.9642 28.3269 32.9444 24.6106 32.9444 17.1947V15.8055C32.9444 8.39102 32.9444 4.67328 30.6554 2.36447C28.3663 0.0556707 24.6287 0.0556641 17.1945 0.0556641H15.8251C8.38958 0.0556641 4.67314 0.0556707 2.36433 2.36447C0.0555405 4.67328 0.055542 8.3884 0.055542 15.8055V17.1947C0.055542 24.6106 0.0555405 28.3269 2.36433 30.6357C4.67314 32.9446 8.38958 32.9446 15.8251 32.9446Z" fill="white"/>
<path d="M17.7048 23.7682C10.289 23.7682 5.7885 18.623 5.61353 10.0732H9.36944C9.48653 16.3537 12.3439 19.0191 14.5343 19.5623V10.0732H18.135V15.492C20.2478 15.2579 22.458 12.7925 23.2025 10.0732H26.7427C26.1756 13.4187 23.7695 15.8841 22.0673 16.901C23.7695 17.7232 26.5085 19.8755 27.5649 23.7682H23.6722C22.85 21.166 20.8346 19.1506 18.135 18.8769V23.7682H17.7048Z" fill="#45494E"/>
</svg>
