<svg width="41" height="41" viewBox="0 0 41 41" fill="none" xmlns="http://www.w3.org/2000/svg">
<path d="M20.4999 14.4354V21.2688M22.6287 5.90877L24.7145 7.68629C25.24 8.13411 25.8924 8.40484 26.5807 8.45976L29.3124 8.67747C30.9184 8.80564 32.1941 10.0805 32.3223 11.6866L32.5395 14.4187C32.5944 15.107 32.8661 15.7604 33.3139 16.2859L35.0906 18.3711C36.1357 19.5974 36.1358 21.4012 35.0908 22.6275L33.3141 24.713C32.8663 25.2385 32.5949 25.8922 32.54 26.5804L32.3215 29.3121C32.1933 30.9182 30.9196 32.1939 29.3135 32.322L26.5809 32.5401C25.8926 32.595 25.2395 32.865 24.714 33.3128L22.6287 35.0904C21.4024 36.1354 19.5975 36.1357 18.3712 35.0906L16.2858 33.313C15.7603 32.8652 15.1072 32.5947 14.419 32.5398L11.6863 32.322C10.0803 32.1939 8.80655 30.9185 8.67839 29.3124L8.45984 26.5806C8.40492 25.8924 8.13357 25.2393 7.68575 24.7138L5.90902 22.6276C4.86399 21.4013 4.8635 19.598 5.90853 18.3718L7.68686 16.2856C8.13468 15.7601 8.40342 15.107 8.45834 14.4187L8.67688 11.6869C8.80505 10.0809 10.0824 8.80547 11.6885 8.67731L14.4181 8.45959C15.1064 8.40467 15.7598 8.13416 16.2853 7.68634L18.3714 5.90877C19.5976 4.86374 21.4024 4.86374 22.6287 5.90877ZM20.585 26.3938V26.5646L20.4148 26.5639V26.3938H20.585Z" stroke="#373737" stroke-width="4" stroke-linecap="round" stroke-linejoin="round"/>
</svg>
